<mxfile host="app.diagrams.net" modified="2022-10-06T00:27:37.882Z" agent="5.0 (Macintosh; Intel Mac OS X 10_15_7) AppleWebKit/537.36 (KHTML, like Gecko) Chrome/105.0.0.0 Safari/537.36" etag="-GNbV6LyGmbWlYLV9igG" version="20.4.0" type="github">
  <diagram id="pa6XWRNewmF_RHwa3scV" name="Page-1">
    <mxGraphModel dx="764" dy="448" grid="1" gridSize="10" guides="1" tooltips="1" connect="1" arrows="1" fold="1" page="1" pageScale="1" pageWidth="850" pageHeight="1100" math="0" shadow="0">
      <root>
        <mxCell id="0" />
        <mxCell id="1" parent="0" />
        <mxCell id="RRqdGAsxoy1FdDmPXSII-3" value="" style="edgeStyle=orthogonalEdgeStyle;rounded=0;orthogonalLoop=1;jettySize=auto;html=1;" edge="1" parent="1" source="RRqdGAsxoy1FdDmPXSII-1" target="RRqdGAsxoy1FdDmPXSII-2">
          <mxGeometry relative="1" as="geometry" />
        </mxCell>
        <mxCell id="RRqdGAsxoy1FdDmPXSII-1" value="&lt;font style=&quot;font-size: 14px;&quot;&gt;Begin:&lt;br&gt;assignment_three.py:&amp;nbsp;&lt;span id=&quot;docs-internal-guid-b3acf94e-7fff-1f7b-59c8-6a6939bb219d&quot;&gt;&lt;span style=&quot;font-family: Arial; background-color: transparent; font-variant-numeric: normal; font-variant-east-asian: normal; vertical-align: baseline;&quot;&gt;program will have two primary functions and helper functions, such as main().&amp;nbsp;Include header comments at the top with name, date last modified and purpose of program.&lt;/span&gt;&lt;/span&gt;&lt;/font&gt;" style="ellipse;whiteSpace=wrap;html=1;spacing=27;" vertex="1" parent="1">
          <mxGeometry x="10" y="10" width="310" height="170" as="geometry" />
        </mxCell>
        <mxCell id="RRqdGAsxoy1FdDmPXSII-7" value="" style="edgeStyle=orthogonalEdgeStyle;rounded=0;orthogonalLoop=1;jettySize=auto;html=1;" edge="1" parent="1" source="RRqdGAsxoy1FdDmPXSII-2" target="RRqdGAsxoy1FdDmPXSII-6">
          <mxGeometry relative="1" as="geometry" />
        </mxCell>
        <mxCell id="RRqdGAsxoy1FdDmPXSII-2" value="&lt;font style=&quot;font-size: 14px;&quot;&gt;Define function to calculate area of a rectangle (two parameters and returns the result)&lt;/font&gt;" style="shape=process;whiteSpace=wrap;html=1;backgroundOutline=1;" vertex="1" parent="1">
          <mxGeometry x="370" y="90" width="270" height="60" as="geometry" />
        </mxCell>
        <mxCell id="RRqdGAsxoy1FdDmPXSII-13" value="" style="edgeStyle=orthogonalEdgeStyle;rounded=0;orthogonalLoop=1;jettySize=auto;html=1;fontFamily=Verdana;fontSize=12;" edge="1" parent="1" source="RRqdGAsxoy1FdDmPXSII-6" target="RRqdGAsxoy1FdDmPXSII-12">
          <mxGeometry relative="1" as="geometry" />
        </mxCell>
        <mxCell id="RRqdGAsxoy1FdDmPXSII-6" value="&lt;b id=&quot;docs-internal-guid-031a3e43-7fff-9be1-03f9-0a59f45e9817&quot; style=&quot;font-weight:normal;&quot;&gt;&lt;span style=&quot;font-size: 11pt; font-family: Arial; color: rgb(0, 0, 0); background-color: transparent; font-weight: 400; font-style: normal; font-variant: normal; text-decoration: none; vertical-align: baseline;&quot;&gt;Define surface area function with three parameters: (length, width, and height), and&lt;span style=&quot;font-family: Helvetica; font-size: 12px;&quot; id=&quot;docs-internal-guid-031a3e43-7fff-9be1-03f9-0a59f45e9817&quot;&gt;&lt;span style=&quot;font-size: 11pt; font-family: Arial; background-color: transparent; font-variant-numeric: normal; font-variant-east-asian: normal; vertical-align: baseline;&quot;&gt;&amp;nbsp;call the rectangle function.&lt;/span&gt;&lt;/span&gt;&amp;nbsp;Return result.&amp;nbsp;&lt;/span&gt;&lt;/b&gt;" style="shape=process;whiteSpace=wrap;html=1;backgroundOutline=1;" vertex="1" parent="1">
          <mxGeometry x="470" y="225" width="298.75" height="100" as="geometry" />
        </mxCell>
        <mxCell id="RRqdGAsxoy1FdDmPXSII-11" value="" style="edgeStyle=orthogonalEdgeStyle;rounded=0;orthogonalLoop=1;jettySize=auto;html=1;fontFamily=Verdana;fontSize=12;" edge="1" parent="1" source="RRqdGAsxoy1FdDmPXSII-8" target="RRqdGAsxoy1FdDmPXSII-6">
          <mxGeometry relative="1" as="geometry" />
        </mxCell>
        <mxCell id="RRqdGAsxoy1FdDmPXSII-8" value="&lt;span id=&quot;docs-internal-guid-595e009f-7fff-b5b6-c899-9cbd34e05275&quot;&gt;&lt;p style=&quot;line-height:1.2;margin-top:0pt;margin-bottom:0pt;&quot; dir=&quot;ltr&quot;&gt;&lt;font face=&quot;Verdana&quot;&gt;&lt;span style=&quot;font-size: 12px;&quot;&gt;Top: 4 * 3 = 12&lt;/span&gt;&lt;/font&gt;&lt;/p&gt;&lt;p style=&quot;line-height:1.2;margin-top:0pt;margin-bottom:0pt;&quot; dir=&quot;ltr&quot;&gt;&lt;font face=&quot;Verdana&quot;&gt;&lt;span style=&quot;font-size: 12px;&quot;&gt;Bottom: 4 * 3 = 12&lt;/span&gt;&lt;/font&gt;&lt;/p&gt;&lt;p style=&quot;line-height:1.2;margin-top:0pt;margin-bottom:0pt;&quot; dir=&quot;ltr&quot;&gt;&lt;font face=&quot;Verdana&quot;&gt;&lt;span style=&quot;font-size: 12px;&quot;&gt;Left Side: 9 * 3 = 27&lt;/span&gt;&lt;/font&gt;&lt;/p&gt;&lt;p style=&quot;line-height:1.2;margin-top:0pt;margin-bottom:0pt;&quot; dir=&quot;ltr&quot;&gt;&lt;font face=&quot;Verdana&quot;&gt;&lt;span style=&quot;font-size: 12px;&quot;&gt;Right Side: 9 * 3 = 27&lt;/span&gt;&lt;/font&gt;&lt;/p&gt;&lt;p style=&quot;line-height:1.2;margin-top:0pt;margin-bottom:0pt;&quot; dir=&quot;ltr&quot;&gt;&lt;font face=&quot;Verdana&quot;&gt;&lt;span style=&quot;font-size: 12px;&quot;&gt;Front: 9 * 4 = 36&lt;/span&gt;&lt;/font&gt;&lt;/p&gt;&lt;p style=&quot;line-height:1.2;margin-top:0pt;margin-bottom:0pt;&quot; dir=&quot;ltr&quot;&gt;&lt;font face=&quot;Verdana&quot;&gt;&lt;span style=&quot;font-size: 12px;&quot;&gt;Back: 9 * 4 = 36&lt;/span&gt;&lt;/font&gt;&lt;/p&gt;&lt;p style=&quot;line-height:1.2;margin-top:0pt;margin-bottom:0pt;&quot; dir=&quot;ltr&quot;&gt;&lt;font face=&quot;Verdana&quot;&gt;&lt;span style=&quot;font-size: 12px;&quot;&gt;Total Surface Area = sum of all&lt;/span&gt;&lt;/font&gt;&lt;/p&gt;&lt;/span&gt;" style="ellipse;shape=cloud;whiteSpace=wrap;html=1;fontSize=14;shadow=1;" vertex="1" parent="1">
          <mxGeometry x="140" y="160" width="300" height="230" as="geometry" />
        </mxCell>
        <mxCell id="RRqdGAsxoy1FdDmPXSII-9" value="" style="shape=image;verticalLabelPosition=bottom;labelBackgroundColor=default;verticalAlign=top;aspect=fixed;imageAspect=0;image=data:image/png,iVBORw0KGgoAAAANSUhEUgAAAMkAAAEoCAYAAADyqdWWAAAYVGlDQ1BJQ0MgUHJvZmlsZQAAWIWVeQVYVUvX/+xz9kk4dHendINId3eIyqEbPDQqIiASKiAhCogCV8EAkxIBCVFESkKxUFpRMShB+Tah9773/T//7/nmeWbP76xZs9aaNbH2OhsAznJyWFgQig6A4JAIiq2RLp+ziysfbgoQACvAAUGAJ3uGh+lYW5sDpPxu/7MsDgNoo30qtSHrv/v/v4XeyzvcEwDIGsEeXuGewQi+DQBc5BlGiQAAu0EXjI4I28BIBUwUxEAEp25g3y1ctIE9tvD1TR57Wz0EtwOApyaTKb4A0PQhdL4oT19EBs080scQ4uUfAgAzjOBdwcGhXgBw6iM8YghPGII35qHq8Q85vv8h0+OPTDLZ9w/emstmwev7h4cFkWP/j+7430twUORvHSJIpfajGNtuzBnx27PAULMNTI3guRAPSysEMyB42d9rkx/BKKJfpLHDFj+KyzNcD/EZYEGwrBdZ3wzBXAg2DAmyNN+me/j4G5ogGNkhqBj/CBN7BLMhONU73MBum+c8JdR2Wxeqxoeip7NNf0imbOrd0PU6MtBBZ1v+Vz9vk235aJo4P3snBBMRLBTl72iJYBoES4cH2plt8+yM89Oz/M1DibTdsF8IwbbeIUa6W/LRUT4UQ9tt/vTg8N/zRZ/38zex3MY3I/zsjbf8g273JG/aj8wF3ecdouPwW453uLP577l4eesbbM0dPeMd4mC3LWc5LELXdmssTAwLst7mhwW8g4w26AIIVgyPstseCztGIBtySz7sExZhbb9lJxwXQDa13rIHzgLmQA/oAz4QiVQPEAoCgH/PXO0c8murxxCQAQX4Am8gtU35PcJpsycEedqBOPARQd4g/M843c1ebxCF0H/+oW49pYDPZm/U5ohAMIXgYGAGgpDfkZujQv5ocwQTCMX/v7STkeqJ2BuE1I3+/zf9N/Vvig5CMd+mRP7WyEf7mxNrgNXHGmMNseIwB7wL1oDNkac2UuVhVVjt9zz+5sdMYfox7zBDmDHM833+iZR/WWkBxhD5htu+8PinL2ARRKYSrAtrItIRyTALzAGkYEVEjw6shWhWQqh623ZveIXvX7L/Ywb/WI1tPoIsAUVgJWgTxP49kkaCRumPlA1f/9M/W7Z6/PG33p+ef+vX+4f3vZDW7N+c6FT0LXQn+j76EboRXQv40M3oOnQ3+t4G/rO7JjZ3129ttpv2BCJy/P9L3++V3fBkuOwV2VnZta2+CO+YjTsa6IWGxVL8ff0i+HSQiODNZxLiKb2DT15WXh6AjfiydX19s92MGxBL7980MnLvqiJcRN2/aaHInVGVhxyZM3/TRJAzza4GwE1bz0hK1BYN3nhgkFuCFjlp7IAHiV5iyHzkgTLQANrAAJgCK2APXMBexHo/ZJ9TQDQ4CI6AFJABskAeOAtKQBmoANfATVALGsF98AA8Bn1gCLxAds8k+ADmwSJYhSAIB5EgRogd4oWEIUlIHlKFdkEGkDlkC7lA7pAvFAJFQgehJCgDOgWdhS5AldANqB66Dz2C+qHn0FtoFvoK/UChUdQoJhQ3SgQlg1JF6aDMUPaoPShf1H5UHCoZdRJVgCpFXUXVoO6jHqOGUGOoD6gFNEBToVnQ/GgptCpaD22FdkX7oCnoeHQ6Oh9diq5CNyDr/BQ9hp5Dr8BYmBHmg6WQHWwMO8Ce8H44Hj4On4Ur4Bq4HX4Kv4Xn4V8YEoYLI4lRx5hgnDG+mGhMCiYfcxFzB9OBnKVJzCIWi2XBimJVkLPogg3AHsAexxZjq7Et2H7sOHYBh8Ox4yRxmjgrHBkXgUvBncFdxTXjBnCTuGU8FZ4XL483xLviQ/CJ+Hz8ZXwTfgA/jV8l0BGECeoEK4IXIZaQSSgnNBB6CZOEVSI9UZSoSbQnBhCPEAuIVcQO4kviNyoqKgEqNSobKn+qBKoCqutUD6neUq1QM1BLUOtRu1FHUp+kvkTdQv2c+huJRBIhaZNcSRGkk6RKUhvpNWmZhpFGmsaExovmME0hTQ3NAM0nWgKtMK0O7V7aONp82lu0vbRzdAQ6ETo9OjJdPF0hXT3dCN0CPSO9HL0VfTD9cfrL9I/oZxhwDCIMBgxeDMkMZQxtDOOMaEZBRj1GT8YkxnLGDsZJJiyTKJMJUwBTBtM1ph6meWYGZkVmR+YY5kLme8xjLGgWERYTliCWTJabLMMsP1i5WXVYvVnTWKtYB1iX2DjZtNm82dLZqtmG2H6w87EbsAeyZ7PXsr/igDkkOGw4ojnOcXRwzHEycWpwenKmc97kHOVCcUlw2XId4Crj6uZa4ObhNuIO4z7D3cY9x8PCo80TwJPL08Qzy8vIu4vXnzeXt5n3PR8znw5fEF8BXzvfPD8XvzF/JP8F/h7+VQFRAQeBRIFqgVeCREFVQR/BXMFWwXkhXiELoYNCV4RGhQnCqsJ+wqeFO4WXRERFnESOidSKzIiyiZqIxoleEX0pRhLTEtsvVio2KI4VVxUPFC8W75NASShJ+EkUSvRKoiSVJf0liyX7d2B2qO0I2VG6Y0SKWkpHKkrqitRbaRZpc+lE6VrpTzJCMq4y2TKdMr9klWSDZMtlX8gxyJnKJco1yH2Vl5D3lC+UH1QgKRgqHFaoU/iiKKnorXhO8ZkSo5KF0jGlVqWfyirKFOUq5VkVIRV3lSKVEVUmVWvV46oP1TBqumqH1RrVVtSV1SPUb6p/1pDSCNS4rDGzU3Sn987yneOaAppkzQuaY7v4drnvOr9rTItfi6xVqvVOW1DbS/ui9rSOuE6AzlWdT7qyuhTdO7pLeup6h/Ra9NH6Rvrp+j0GDAYOBmcNXhsKGPoaXjGcN1IyOmDUYowxNjPONh4x4TbxNKk0mTdVMT1k2m5GbWZndtbsnbmEOcW8wQJlYWqRY/HSUtgyxLLWCliZWOVYvbIWtd5vfdcGa2NtU2gzZStne9C2047Rbp/dZbtFe137TPsXDmIOkQ6tjrSObo6VjktO+k6nnMacZZwPOT924XDxd6lzxbk6ul50XdhtsDtv96SbkluK2/Ae0T0xex7t5dgbtPfePtp95H233DHuTu6X3dfIVuRS8oKHiUeRx7ynnudpzw9e2l65XrPemt6nvKd9NH1O+cz4avrm+M76afnl+8356/mf9f8SYBxQErAUaBV4KXA9yCmoOhgf7B5cH8IQEhjSHsoTGhPaHyYZlhI2tl99f97+eYoZ5WI4FL4nvC6CCXmR744Uizwa+TZqV1Rh1HK0Y/StGPqYkJjuWInYtNjpOMO4vw7ABzwPtB7kP3jk4NtDOocuxEPxHvGthwUPJx+eTDBKqDhCPBJ45EmibOKpxO9JTkkNydzJCcnjR42OXkmhSaGkjBzTOFaSCqf6p/akKaSdSfuV7pXelSGbkZ+xdtzzeNcJuRMFJ9ZP+pzsyVTOPJeFzQrJGs7Wyq44RX8q7tR4jkVOTS5fbnru97x9eY/yFfNLThNPR54eKzAvqDsjdCbrzNpZv7NDhbqF1UVcRWlFS8VexQPntM9VlXCXZJT8OO9//tkFows1pSKl+WXYsqiyqXLH8s6/VP+qvMhxMePiz0shl8YqbCvaK1UqKy9zXc68groSeWX2qtvVvmv61+qqpKouVLNUZ1wH1yOvv7/hfmP4ptnN1luqt6puC98uusN4J70Gqomtma/1qx2rc6nrrzetb23QaLhzV/rupUb+xsJ7zPcym4hNyU3rzXHNCy1hLXP3fe+Pt+5rfdHm3DbYbtPe02HW8fCB4YO2Tp3O5oeaDxsfqT+q71Ltqn2s/LimW6n7zhOlJ3d6lHtqelV66/rU+hr6d/Y3DWgN3H+q//TBoMng4yHLof5hh+FnI24jY8+8ns08D3r+ZTRqdPVFwkvMy/RXdK/yX3O9Ln0j/qZ6THns3lv9t93v7N69GPcc/zARPrE2mTxFmsqf5p2unJGfaZw1nO17v/v95IewD6tzKR/pPxZ9Evt0+7P25+555/nJL5Qv61+Pf2P/dum74vfWBeuF14vBi6tL6cvsyxUrqiudP5x+TK9Gr+HWCn6K/2z4Zfbr5Xrw+noYmULefBVAIxXl4wPA10sAkFwAYETyM+Lurfxvu6CRlw8U0jpC0tAHVDs6CbbDaGNFcRx4NgIvUZPKkjqQlEVTTztHL8XgzVjGNM4iwRrL1sxBy+nEVc79jXcnXzL/E0F6IVvhEyKPxYC4goSP5OkdXVJLMmKyNnIJ8lcUhpRQynIqe1TT1WrU3+4kaaructdK076h81IPr69s4GmYZVRn/NoUMhMyN7IIsMy0um39zGbZjsVewcHKMdjphHOVy2PXt7vn3Zb2rO4D7kQyu4eUp46Xrfc+H29fsp+d/84AvkAocCyoOfh8SFKoX5j1flUKXzg+/HPEcGRTVEV0Tkx8bFCcywGTg5qHVOKVD6sl6BwxS3RK8k6OOHo0JfdYeeqttJb07ozh429OTJ/8mPk1ayF78dRCzkLuj3z4NHPBjjNGZz0LDxcVFFeday55fH7wwmjpWNls+feL6EvMFRKVupfdrkRfzb12s6q/+ssN+psKt+xuh9/Jqqmsbai7X9/W0HL3buOde9VNlc1lLcX381rT2w62B3TYPVDuZOtceTj2qLfrweO27vtPGnuqewv6wvv1BkgDT58WDvoMKQ1jhkdGKp5FPdcexY52IvtL6eX0q+zXGq/H35wY0xj78Lbkne04erx6wmFiZTJ3asdU87Tt9MTM0VmZ2Yn3FR9C5hTmFj5Wf/L8TP/5zrz1/NSXg19Zvz74lvk9ZIG86IPso4kfHT+l19c3118Quo4KQMujZ+AbmASsM04TL0UQJYpSCVDLktRpbGg96eLpSxiaGGeZ6VhUWclsqey3OV5zUXEr8OzmTeC7wN8s8EJwQZhKhFdUScxE3F0iVjJnxw2pbukZWViOX36ngqtihFKGcrlKveoTtXfq33diNTl3yWlZaAfpZOpe1+vT/2iIN+I2ljcxMHUw8zQPsYixjLdKsj5qk2Kbapduf9wh3THZKdbZz8XeVX+3lpvhHte90fvy3K+TWz26PDu87ngX+RzwdfKT9af2nwvoC2wIqgwuDMkMTQyj7HejaIfzhq9GDEVei0qJ9ogxiJWNEzrAfZD9EHM83WHs4cWEd0e6Em8k5SVHH92TYnpMP9U8jZx+JOOv4w9OvD75KXMhayl74dS3nPncj3lz+Z9OL5+hO6tWGFJ0sbjn3HjJ7PnJC29Kn5f1lz/8q+li46Wuio+X+a/suVp07Xk103XLG6nI7bVyR7rGq7awbqABc1excd+9o00Xmxtbmu5fbs1qO9Qe3ZHwILOz+GHZo3NdJx9Hdts9keqBe0Z7b/Zl9AcM2Dw1GDQYshn2GIl8lvz82OihFz4v9V5xvJp7Xf/m2JjzW6l3+HdT420TxZP7p7SnqacHZ8pmD7/3/+A15/cx+FPY57D5sC+Ur1HfYr9HL/gvGi3RLt1aNlh+vOK68vFH3xr1z9HN9ZcE7ZAZ9AzljcaiM2FJuBcTh5XBzuL+wvsRZAgrxC6qEupoki2NPC0N7SLdc/oWhkrGHKZDzL4stqyabOLszOxrHDOcA1xN3FU8ZbyFfPn8uQKZgilCUcJkEQNRPtFlsW7xEolwSeMd/FIoqVnpEZmHsg1yl+ULFBIU3ZXUlLHKvSp5qs5q7GrP1Ys1vHbKa2I1X++q0crU9tPR1xXRo9MH+t8Mpg2Hje4a55t4mwqbjpkVmFtZ4CzaLJOsTKzZrN/bNNnm2PnZaziQHF47XnM66GzqwuzyxrVidygS/1f23NubsE/PHe/eTy7yCPTc6UXtNep9yWe/r6rvml+zf0KAdiAIbAk6EqwXAod0hB4N0wlb3n+F4oLE7MoIq4jvkQVRO6NeRyfEcMfci3WPY4kbPXDlYNIh53ix+MXDbQk5R3wT9ZMkktmOUqWAlO/HxlOfpFWnH88gH1c8gTsxevJ6ZnpWYLbRKYZTD3J258zlxuXp5OueTj2DP5teOFHMfk6+RO282gWlUpkysXL+v9gv0l8iVhAqaZGdpHnV/dqxqmvVT6+v3RS75Xr71J3+WqY6l/qihpFGzD3xJqNmj5bD98+1NrW9aV9/wN+p99D30fGuG4+Hu3/2iPfu7jvd//qp/OCJoU8jds/qR/lf5L2SeUPzNnoiYyb2o+XXxRWbjfXf+h9wo2CVAchB8kzHE0idBSC7Fskz7wLASgTAmgSAvRpAHasCKKMqAAUe/RM/ICTxxCM5JwvgBeJAEck0zYErkjXHgDQko7wKmsAAmAJrEAMkDmkj+WE4dALJBzugcRSE4kfporxQx5AsbwD1Ay2ItkDHoSvQIzAeVoeD4TL4OYYBY4ZkZG1YCKuNTcC24jA4U1wW7hmeHx+EryfgCE6ECsIPogXxAnGJypKqghqm9qBuIwmT0kifaOxpGpFMJ5sO0O2nm6B3oe9lMGS4x6jKWMOkztTGbMs8zhLJimXNZxNhq2O3ZJ/hSOWU4xznKuH24JHkWeZ9wJfH7yWgKIgVfCF0SzhTJEjUTExSnCQ+LzEkeXfHOal4aTcZNVkm2Xm5J/KXFdIU/ZRMlaVVmFXWVT+qvVYf0Oja2aHZvqtTq0d7VGdGd1EfGGCRew5vjDchmFKbMZnzWyhaWlqFWOfaNNpO2pMcFB1dnA45n3dpd512o9oju9dx30H3cnKPx7KXkLedz1HfRr8fAXqBZ4JWQjxDB/YbUhojFCOro6VibsTtPNB3KPQwV8JwYm6y+dHFY7lpO9I7jnufZM58k/0k51XeegHfWbUi83P7zseWni8fvSRVef6qbNXYjQu399ZS1Vc17mmWbOXtMHxY2k3dK9a/OJg9Iva8/+W5N6ffDUy5z658ZPh89Sv4LruotrS+kv6jbnVw7e7Psl9h6yqb9we0+Z8DA+AEIkAeaAEL4AaCQTzIBuWgHvSCSfATYoFkIFPIB0qCSqH70DsUjBJFmaMoqLOoNtRnNBfaDH0QXY2egDlgWzgD7sBAGE3MAcxdzBpWC5uEfYSjw7ng/sJ9xevgc/BTBA1CDmGOaIis+RqVM9VtJBOmUA+S1EjnaahoYmimaV1oe+gM6Vrod9E3M+gxdDHaMb5CMtMfzJksEiyPWfezsbDVsNuwT3HEcpI4y7m0uSa4s3lMeWl4X/Hd4j8p4C+oK8Qm9EH4nkiWqI+YrriwBIMkfgdGCi9NI8MgSy+Hl1uRn1EYUexSuq98X6VL9YXaVw2anbKaNrv8tSK0KTp+us56RvpqBoqGqkZGxvtM4k0vmHWaz1tyWhlYByIxLdfutH2eQ67jeadm5y+uSrsT3J7s5dkX4d7rIejp45Xnfcenx3fCbzWAJVAhyD44KuRsaEvYewpruGFEVOSlqNEYuliLuMwDzw6JxB86PH7EN4kuuSslIhWbdiwDPp56kjOzLTsxxzlP77TGGY1CjWK1EvELcOmD8qiLnJfuVXpcYb76qqrjeu/NhTtytQfrHzfSNum3UFovts926j662S3XU9T3auD74Jfh6WfjozMvv7+B3hLHmSaFpo1n8+dUPqd/u7gUtNKzmrzW9vP7r5XN9Uchp58e8AApsAvYAB9wCOSD66AbvIcIkCRkAVGgAqgFeo9iQemjIlAXUaNoerQJOhndgv4Ja8BxcAO8htHBpGNGsOLYI9hXuF24UjweH4ofJKgRiokoYgBxiEqf6i61GvV9kjVpiiaRlp+2hc6NbpE+i0GK4QljCBOJqYJZl/klSywrD2sP20l2Dw5dTgkuJq5V7lc8dbyn+IL5zQVkBdmEsEIrwl9EPot+E/spQSMptENbyl06QaZYtk7uqfw3RQ4lE+VElTY1anU3jeuaOORdtUlHQDdHn8WgysjVhN603/ysZai1g6283aiDq2O3s7HL090+bst7k9whcpjHkJeKd5Evwe9IADGwLNgiFITVUkIjeCLboiNjvQ58ii9PiD0ynLiWjDqKT6E7ppAanjaY4XB89mRqlnT285zUPI38LwWVZ/cWEYsvlaicv1eqVdbyl/7FrgrrysEr9lf7qgyr62+I3Tx9G3/nUM1aXVqDyN2+e4nNyi2zrUXtVg/gzruPwh9Ldk/0nOtzHmB6OjCUOWL6bH306kurVzNvIsd+vkucQE8mTqNmkt7DHw7Pffpk+Dl2vvjLia+R3/S/LX2/vGC58GLRb3FxKWppdtltuXdFb+XKD9KPsB8Dq0qrBatf1kzWStdWf9r/vPYL/cv519V1aN1h/fLG+m99O9qMH3QAFL3ZQF0SQwn//m6z9V3pH7nJv1uwGV02ykZ02SgbkQb8D4Ml208WapoBAAAAVmVYSWZNTQAqAAAACAABh2kABAAAAAEAAAAaAAAAAAADkoYABwAAABIAAABEoAIABAAAAAEAAADJoAMABAAAAAEAAAEoAAAAAEFTQ0lJAAAAU2NyZWVuc2hvdAn6MUQAAAHWaVRYdFhNTDpjb20uYWRvYmUueG1wAAAAAAA8eDp4bXBtZXRhIHhtbG5zOng9ImFkb2JlOm5zOm1ldGEvIiB4OnhtcHRrPSJYTVAgQ29yZSA2LjAuMCI+CiAgIDxyZGY6UkRGIHhtbG5zOnJkZj0iaHR0cDovL3d3dy53My5vcmcvMTk5OS8wMi8yMi1yZGYtc3ludGF4LW5zIyI+CiAgICAgIDxyZGY6RGVzY3JpcHRpb24gcmRmOmFib3V0PSIiCiAgICAgICAgICAgIHhtbG5zOmV4aWY9Imh0dHA6Ly9ucy5hZG9iZS5jb20vZXhpZi8xLjAvIj4KICAgICAgICAgPGV4aWY6UGl4ZWxZRGltZW5zaW9uPjI5NjwvZXhpZjpQaXhlbFlEaW1lbnNpb24+CiAgICAgICAgIDxleGlmOlBpeGVsWERpbWVuc2lvbj4yMDE8L2V4aWY6UGl4ZWxYRGltZW5zaW9uPgogICAgICAgICA8ZXhpZjpVc2VyQ29tbWVudD5TY3JlZW5zaG90PC9leGlmOlVzZXJDb21tZW50PgogICAgICA8L3JkZjpEZXNjcmlwdGlvbj4KICAgPC9yZGY6UkRGPgo8L3g6eG1wbWV0YT4KGJg1wwAAE3NJREFUeAHtnWlQVecZxx9EEVAC4oIrixijNRO1ncm0M52q0+mHfjL50g+JCiTGmrgg7jsuwbgLIoIIAoqyiIK4RGMikFRjjEaI0ZrYiIlNjYlV4zImVmvve6YwisCFe9573/d57//OGC/3nPMsv4df3nPuhaPPI8eD8AABEGiSQJsmt2ADCICARQCS4BsBBJwQgCROAGEzCEASfA+AgBMCkMQJIGwGAUiC7wEQcEIAkjgBhM0gAEnwPQACTghAEieAsBkEIAm+B0DACQFI4gQQNoMAJMH3AAg4IQBJnAAyaXN1dTX5+PhQZWWlSW25vRdI4nbEeiS4efMmxcXF6VEMsyogCbOBuVruokWLqLa21tXDvfo4SOIF4xenVykpKSREwaP1BCBJ65mxOkKcZr388suUmJhIQ4YMYVW7LsVCEl0m4aY6YmNjafDgwVhFbPBta+NYHKo5gbKyMuudLPGuFh6uE8BK4jo7rY+8dOmS9W6WuA6JjIzUulbdi/PBjSB0H5Fr9Qk5Fi9e3OzBuAdIs3jqN0KSehRmPRErifjz+EOcdiUkJNC6deusi/jhw4c/vhnPmyCAa5ImwHB/WZxiNXWaJd7lgiAtnzCuSVrOCnt6KQGcbnnR4MVnJuKUS6wkISEhXtS5vVYhiT1+ONoLCOB0ywuGjBbtEYAk9vjhaC8gAEm8YMho0R4BSGKPH472AgKQxAuGjBbtEYAk9vjhaC8ggE/cnQz5+vXrNCY2jmrwk7ROSOm7+ccff6CJkybT6pUrXCoSkjSDTXz49uqo0TRgyG8pacPWZvbEJl0JpK5IpKOVRygwwN/lEiFJE+hu3bpFrzgEGfjr39HYidOa2Asv60wgZdlC+qb2Ir047E/k6+vrcqm4JmkE3e3btx2CjKLnBr8IQRrhw+Gl9csT6esL52nMhJm2y4UkDRDevXvXOsWKHvQbemPS9AZb8SUHAhtWLqYL58/RmLdmSCmXzemWuONHVVWV9cN5I0eOlNJ8wyD37t2zBOk78AUaF2///0AN4+Nr9xNIW7WEzp89Y60gPm3krAFyorixd3HxPHToUBoxYgRVVFRQTEwMRUVFWT/NKjPtzz//TK+8OprCnx1E46bMkRkasTxEIH3N23T2TDWNdqwgdq5BGparvSTibh/ipmrij1hNxG/biV87Fb9hJ+tx//59awXpHT2Axk+dKyss4niQQMbaZfTF6VPWKVbbtnJPkLSXRKwkU6ZMqf8tO/F7EEIcIYyMx4MHDyxBukc8S29OmycjJGJ4mEBG8jtUfeoEjZowg9q185OeXa5y0sujRmUQvzgUHBxsO9vDhw+tt3m79o6iCTMW2I6HAJ4nsCllJZ0+cZxiHO9i+fm1d0sB2ktS17VYUfbs2UN195JKTk6u2+TS3+KUTXxQ2LlHOE2cmehSDByklsDm1JV06vhHDkFmUXt/1z8sdNYFG0nE6iHu8lFTU2Odetn99VMhSHC3XjRp1iJnjLBdQwJZG9bQiaMfWiuIf0CAWyvU/pqkrntxdw8hyo0bN2jYsGHW/W1dvS4ZNXoMdQztTvFzltSFx9+MCGxJW0fHPzpiXaQHBHZwe+VsJKkjIVaQulMtVyQZMyaGAoK70JR5S+tC4m9GBHLSk+lY5WFLkMAOHT1SudaSiLd7xV0IG8pQd6olrlNa84hx/DSvX1AnSpif1JrDsK8mBPIy1tNHHxyk0Y53sTp0DPJYVVpLIm6uJm7XKf5tjccf4uJdPFrzTwnEvfY6+QY8Q1MXvPN4KDxnQiAvcwNVHt5PMY4PCjsGPePRqrWWRJAQF+tCCvFPmYkfSxEri3gurkvE5yUtebw2diyRXyBNT1zekt2xj2YE8jenUcXBcuuT9I7Bnr9fmPaSiA8SS0tLrU/cxcW7eB4fH//UKVhTcx37xjj6b5v2NGPRyqZ2wesaE8jPTqf3DpRaggSHdFJSKYu3gF966SUSf1r7GPfX8XSf2tLsJatbeyj214BAwZYMOlReQjETZ1JIp1BlFWm/krhKZvybb9G9B0Szl65xNQSOU0igIDeT9pcVO36adwZ1Cu2isBIiIyV5c8IEuvPLQ5qTtE4pXCR3jUBhXhbt27XDukgP7dzVtSASjzJOkgkTJ9FPd+/T3GXJEjEhlKcIFG/LpvKd2xyCzKTQrt08lbbZPEZJMmlyPF2/fY/mL1/fbNPYqCeBnfk5VFaQZ60gnbuFaVOkMZLEO94F+/HGbVqwIlUbuCik5QR27cilku3Z1jVIl7AeLT/QA3saIUlCwlS6cu0mLVyV5gFkSCGbwO6CrVS0dTPFOn7cvWv3nrLD247HXpKp06bTP6/+mxatTrcNAwE8T6C0KJ8Kc9Ip1vFJercevTxfQAsyspZk+owZ9M2/rtLitRktaBW76EZgT/F2ys/aYP24e1ivPrqVV18PW0lmzppFFy9foaXrMuubwRM+BMpLCigvcz3FOU6xuvcO17pwFp+4NyQ4e/YculB7mZLWZzfchK8ZENi3q5ByN66l2EmzqUefCO0rZifJnLlz6e//qKVlqVu0h4sCnyawv7SYsjespphJs6hXeOTTO2j4CqvTrXnz59PZL7+2VhAfHx8NcaKk5gi8W1ZCm1OW0xjHz2L1iejb3K5abWMjyYKFC+nM2S8pKSWL2ki6M59WkzC8mIPluyh9bZJ104bwyGhW3bI43UpMTKTPPj/rOMXKIV/JNx5jNS2mxR7aW0ppq5ZSnOMUK7xvP3ZdaL+SLF68hD6tPuNYQbIdNx5rxw6wtxd8eH8ZpTru8B7rOMWKiO7PEofWK8mSpUvp45OfWRfpfu3dc+MxllNjUvT7B8ppXdICem3ybIrs9xyTqp8uU9uV5O23k+jY8ZPWCuLv7977Kj2NBa/YJXDk4F5as3SOdYoV9ewAu+GUHq/lSrJs2Tv04bHjlOR4mzcgMFApICRvPYGKQ/tpZeIsawXp239g6wNodoR2kkyfPp2OnThF0xYso2tXv6drmgFDOc0T+ORoFWWlrqLXJ8+h6AGDmt+ZyVatJLl48SLlbc2nPpFRtCIR/4gOk++hJ8r87vK39JeY8dRv4PNPvM75C60kESDDHf9Az6aS9zkz9eraR/35dxTZn/c1SMMBanvh3rBQfA0CqghAElXkkZcNAUjCZlQoVBUBSKKKPPKyIQBJ2IwKhaoiAElUkUdeNgQgCZtRoVBVBCCJKvLIy4YAJGEzKhSqigAkUUUeedkQgCRsRoVCVRGAJKrIIy8bApCEzahQqCoCkEQVeeRlQwCSsBkVClVFAJKoIo+8bAhAEjajQqGqCEASVeSRlw0BSMJmVChUFQFIooo88rIhAEnYjAqFqiIASVSRR142BCAJm1GhUFUEIIkq8sjLhgAkYTMqFKqKACRRRR552RCAJGxGhUJVEYAkqsgjLxsCkITNqFCoKgKQRBV55GVDAJKwGRUKVUUAkqgij7xsCEASNqNCoaoIQBJV5JGXDQFIwmZUKFQVAUiiijzysiEASdiMCoWqIgBJVJFHXjYEIAmbUaFQVQQgiSryyMuGACRhMyoUqooAJFFFHnnZEIAkbEaFQlURgCSqyCMvGwKQhM2oUKgqApBEFXnkZUMAkrAZFQpVRQCSqCKPvGwIQBI2o0KhqghAElXkkZcNAUjCZlQoVBUBSKKKPPKyIQBJ2IwKhaoiAElUkUdeNgQgCZtRoVBVBCCJKvLIy4YAJGEzKhSqigAkUUUeedkQgCRsRoVCVRGAJKrIIy8bApCEzahQqCoCkEQVeeRlQwCSsBkVClVFAJKoIo+8bAhAEjajQqGqCEASVeSRlw0BSMJmVChUFQFIooo88rIhAEnYjAqFqiIASVSRR142BCAJm1GhUFUEIIkq8sjLhgAkYTMqFKqKACRRRR552RCAJGxGhUJVEYAkqsgjLxsCkITNqFCoKgKQRBV55GVDAJKwGRUKVUUAkqgij7xsCEASNqNCoaoIQBJV5JGXDQFIwmZUKFQVAUiiijzysiEASdiMCoWqIgBJVJFHXjYEIAmbUaFQVQQgiSryyMuGQFtZlV66dImqqqro5s2bNGzYMBoyZIis0IgDAkoJSFlJcnNzaejQoRQfH085OTnW87i4OKWNITkIyCJgWxKxggghxOohnldXV9Pp06dJiJOcnCyrTsQBAWUEbEsiZBAP8XdISIj1XJxqiVUlJSXF+hr/AQHOBGxLIlaOwYMH1wtSB0MII1YWcY2CBwhwJmBbErFq1NTUPMWgTg4hER4gwJmAbUmGDx9u9Z+QkFDPQYiRl5dX/zWegABnAlIkiYmJsS7SxTtcI0aMsN7dGjlyJGcuqB0E6gnYlkREEhftFRUVJMQQ73LV1tZS3QqDz0vqWeMJUwJSPkysrKy0pKgTQ7AQp1wRERFPXdAz5YSyvZiA7ZWkrKzMOsV6/AJdXLSLa5LY2FgvRovWTSFgeyURq4d4C1h8oDhlyhSLi/gQUawidV+bAgt9eCcB2yuJ+DxErCZClMTEROuPeC5Oweo+XPROtOjaFAK2VxIBIjIy0rp4NwUK+gCBxwnYXkkeD4bnIGAiAUhi4lTRk1QCkEQqTgQzkQAkMXGq6EkqAUgiFSeCmUgAkpg4VfQklQAkkYoTwUwkAElMnCp6kkoAkkjFiWAmEoAkJk4VPUklAEmk4kQwEwlAEhOnip6kEoAkUnEimIkEIImJU0VPUglAEqk4EcxEApDExKmiJ6kEIIlUnAhmIgFIYuJU0ZNUApBEKk4EM5EAJDFxquhJKgFIIhUngplIAJKYOFX0JJUAJJGKE8FMJABJTJwqepJKAJJIxYlgJhKAJCZOFT1JJQBJpOJEMBMJQBITp4qepBKAJFJxIpiJBCCJiVNFT1IJQBKpOBHMRAKQxMSpoiepBCCJVJwIZiIBSGLiVNGTVAKQRCpOBDORACQxcaroSSoBSCIVJ4KZSACSmDhV9CSVACSRihPBTCQASUycKnqSSgCSSMWJYCYSgCQmThU9SSUASaTiRDATCUASE6eKnqQSgCRScSKYiQQgiYlTRU9SCUASqTgRzEQCkMTEqaInqQQgiVScCGYiAUhi4lTRk1QCkEQqTgQzkQAkMXGq6EkqAUgiFSeCmUgAkpg4VfQklQAkkYoTwUwkAElMnCp6kkoAkkjFiWAmEoAkJk4VPUklAEmk4kQwEwlAEhOnip6kEoAkUnEimIkEIImJU0VPUglAEqk4EcxEApDExKmiJ6kEIIlUnAhmIgFIYuJU0ZNUApBEKk4EM5EAJDFxquhJKgFIIhUngplIAJKYOFX09ASBk8cq6cGDB0+81povIElraGFfdgS2pa+hP/7h97R0yRKXa4ckLqPDgboTyM9YS/2jetP69Sm2SoUktvDhYF0JbN+0jqLDe9CG1FTbJUIS2wgRQDcCOzKTKbJXGG1MS5NSGiSRghFBdCFQsDmF+nTvQhnpG6WVBEmkoUQg1QQKs9ZTz66dKHNThtRSIIlUnAimikBRdiqFhT5DWZszpZcASaQjRUBPEyjakkZdQjrQluwst6SGJG7BiqCeIlCcs5E6B/lT7pYtbksJSdyGFoHdTWBnbjqFBLajvNwct6aCJG7Fi+DuIlCSl0FB7dvQtq157kpRH7dt/TM8AQEmBHZt3USB7R7R9vx8j1QMSTyCGUlkEdi9LZP82zykgu07ZIV0GgeSOEWEHXQhsDt/M7V7dJ8KCws9WhIk8ShuJHOVQOn2LPJ9cI+KiotcDeHycZDEZXQ40FMEynZkE/1yxxLEx8fHU2nr80CSehR4oiOBPQU59PDeLSpxrCC+vr5KSoQkSrAjaUsIlBfm0H/uXKedDkHatlX3raouc0soYR+vJbCnaCv98tM1SxA/Pz+lHCCJUvxI3hiBfcV5dO/6VSrZWUT+/v6N7eLR1yCJR3EjmTMC+4q30e1rV6wVJCAgwNnuHtkOSTyCGUlaQmBfyTb66YfLliAdOnRoySEe2QeSeAQzkjgjcKBkO9248g3tLCqioKAgZ7t7dDsk8ShuJGuMwIFdBXTtu4vWChIcHNzYLkpfgyRK8SP5u7sL6Ydvv7IECQkJ0RIIJNFyLN5R1MHSIrpSe94hSCGFhoZq2zQk0XY0Zhd2qKyYvvv6rLWCdOnSRetmIYnW4zGzuEPlO+nbrz63BOnatav2TUIS7UdkVoHv7d1Fl85VW6dYYWFhLJqDJCzGZEaRh/ftpotfnLRWkB49erBpCpKwGRXvQt/fX0oXaj6xBOnZsyerZiAJq3HxLPaDA2V0/vTHjg8KC6l3797smoAk7EbGq+Aj75bTuZN/s1aQ8PBwXsX/v1pIwnJsPIquPLSXznxSZV2kR0RE8Ci6kSohSSNQ8JJ9AlXv7aPqY0eo2HGKFRUVZT+gwgiQRCF8U1Of+PAInfvsmHWKFR0dzb5N7SS5c+sWfXq0kj1Yb23g2tXv6fTxSirbvYv69etnBAbtJHl+0K+oqtxzNx4zYooaNfHCC0MoceE86t+/v0ZV2SvF55HjYS8EjgYBswnghtlmzxfdSSAASSRARAizCUASs+eL7iQQgCQSICKE2QQgidnzRXcSCEASCRARwmwCkMTs+aI7CQQgiQSICGE2AUhi9nzRnQQCkEQCRIQwmwAkMXu+6E4CAUgiASJCmE3gf7ETzU14j06lAAAAAElFTkSuQmCC;" vertex="1" parent="1">
          <mxGeometry x="30" y="190" width="126.3" height="186" as="geometry" />
        </mxCell>
        <mxCell id="RRqdGAsxoy1FdDmPXSII-19" style="edgeStyle=none;rounded=0;orthogonalLoop=1;jettySize=auto;html=1;entryX=0.523;entryY=-0.007;entryDx=0;entryDy=0;entryPerimeter=0;fontFamily=Verdana;fontSize=12;" edge="1" parent="1" source="RRqdGAsxoy1FdDmPXSII-12" target="RRqdGAsxoy1FdDmPXSII-18">
          <mxGeometry relative="1" as="geometry" />
        </mxCell>
        <mxCell id="RRqdGAsxoy1FdDmPXSII-12" value="&lt;span id=&quot;docs-internal-guid-d201ddb9-7fff-ac71-1d9e-6932e37286a2&quot;&gt;&lt;span style=&quot;font-size: 11pt; font-family: Arial; background-color: transparent; font-variant-numeric: normal; font-variant-east-asian: normal; vertical-align: baseline;&quot;&gt;Modify program to get input from the user: length, width, and height.&lt;/span&gt;&lt;/span&gt;" style="shape=trapezoid;perimeter=trapezoidPerimeter;whiteSpace=wrap;html=1;fixedSize=1;spacingLeft=0;spacingRight=0;spacing=17;" vertex="1" parent="1">
          <mxGeometry x="470" y="400" width="210" height="130" as="geometry" />
        </mxCell>
        <mxCell id="RRqdGAsxoy1FdDmPXSII-14" value="&lt;b id=&quot;docs-internal-guid-db304ff4-7fff-bbc4-e4da-ecc398f0b9fa&quot; style=&quot;font-weight:normal;&quot;&gt;&lt;span style=&quot;font-size: 11pt; font-family: Arial; color: rgb(0, 0, 0); background-color: transparent; font-weight: 400; font-style: normal; font-variant: normal; text-decoration: none; vertical-align: baseline;&quot;&gt;Define a function that prints out the purpose of the program and instructions for the user.&lt;/span&gt;&lt;/b&gt;" style="shape=process;whiteSpace=wrap;html=1;backgroundOutline=1;spacingLeft=0;spacingRight=0;spacing=17;" vertex="1" parent="1">
          <mxGeometry x="340" y="500" width="229.38" height="130" as="geometry" />
        </mxCell>
        <mxCell id="RRqdGAsxoy1FdDmPXSII-16" value="&lt;span id=&quot;docs-internal-guid-d1c4fba4-7fff-7ddf-a1aa-2551b7d89ff7&quot;&gt;&lt;span style=&quot;font-size: 11pt; font-family: Arial; background-color: transparent; font-variant-numeric: normal; font-variant-east-asian: normal; vertical-align: baseline;&quot;&gt;Define THREE functions that take no parameters, ask a user for length, width, and height respectively, and return those values&lt;/span&gt;&lt;/span&gt;" style="shape=process;whiteSpace=wrap;html=1;backgroundOutline=1;spacingLeft=0;spacingRight=0;spacing=17;" vertex="1" parent="1">
          <mxGeometry x="580" y="500" width="249.38" height="130" as="geometry" />
        </mxCell>
        <mxCell id="RRqdGAsxoy1FdDmPXSII-18" value="&lt;span id=&quot;docs-internal-guid-bf40f56d-7fff-f17d-5b60-7681d7a6a7a1&quot;&gt;&lt;span style=&quot;font-size: 11pt; font-family: Arial; background-color: transparent; font-variant-numeric: normal; font-variant-east-asian: normal; vertical-align: baseline;&quot;&gt;Define a main() function that calls all others in the correct order&lt;/span&gt;&lt;/span&gt;" style="shape=process;whiteSpace=wrap;html=1;backgroundOutline=1;shadow=1;fontFamily=Verdana;fontSize=12;spacing=7;" vertex="1" parent="1">
          <mxGeometry x="420" y="700" width="300" height="150" as="geometry" />
        </mxCell>
        <mxCell id="RRqdGAsxoy1FdDmPXSII-20" value="Make sure that each functions has an appropriate docstring describing what the function does.&amp;nbsp;&lt;br style=&quot;font-size: 13px;&quot;&gt;The main function does NOT have to have a docstring.&amp;nbsp;Include comments explaining pieces of code that are not immediately obvious." style="ellipse;shape=cloud;shadow=1;fontFamily=Verdana;fontSize=13;spacing=21;spacingTop=12;whiteSpace=wrap;html=1;" vertex="1" parent="1">
          <mxGeometry x="55" y="376" width="220" height="490" as="geometry" />
        </mxCell>
      </root>
    </mxGraphModel>
  </diagram>
</mxfile>
